<?xml version="1.0" standalone="no"?><!DOCTYPE svg PUBLIC "-//W3C//DTD SVG 1.1//EN" "http://www.w3.org/Graphics/SVG/1.1/DTD/svg11.dtd"><svg class="icon" width="32px" height="32.00px" viewBox="0 0 1024 1024" version="1.1" xmlns="http://www.w3.org/2000/svg"><path d="M512 1024C228.693333 1024 0 795.306667 0 512S228.693333 0 512 0s512 228.693333 512 512-228.693333 512-512 512m0-935.253333C276.48 88.746667 88.746667 276.48 88.746667 512S279.893333 935.253333 512 935.253333c235.52 0 423.253333-191.146667 423.253333-423.253333 0-235.52-187.733333-423.253333-423.253333-423.253333m225.28 467.626666H512c-23.893333 0-44.373333-20.48-44.373333-44.373333V238.933333c0-23.893333 20.48-44.373333 44.373333-44.373333 23.893333 0 44.373333 20.48 44.373333 44.373333v228.693334h180.906667c23.893333 0 44.373333 20.48 44.373333 44.373333 0 23.893333-20.48 44.373333-44.373333 44.373333" fill="#c0c4cc" /></svg>