<?xml version="1.0" standalone="no"?><!DOCTYPE svg PUBLIC "-//W3C//DTD SVG 1.1//EN" "http://www.w3.org/Graphics/SVG/1.1/DTD/svg11.dtd"><svg class="icon" width="32px" height="32.00px" viewBox="0 0 1024 1024" version="1.1" xmlns="http://www.w3.org/2000/svg"><path d="M913.937 113.328c-32.944-32.946-76.898-51.09-123.763-51.09s-90.82 18.144-123.764 51.09L416.737 363c-32.946 32.945-51.09 76.899-51.09 123.764s18.144 90.82 51.088 123.764c25.407 25.408 57.585 42.145 93.054 48.403a30.12 30.12 0 0 0 5.25 0.464c14.288 0 26.951-10.244 29.519-24.803 2.88-16.323-8.017-31.89-24.34-34.769-23.278-4.106-44.384-15.081-61.039-31.737-21.61-21.61-33.51-50.49-33.51-81.322s11.9-59.712 33.51-81.322l15.864-15.864a30.433 30.433 0 0 0-0.619 3.44c-1.955 16.46 9.8 31.387 26.26 33.345 25.863 3.073 49.214 14.378 67.528 32.692 21.608 21.608 33.51 50.49 33.51 81.322s-11.902 59.714-33.51 81.322L318.54 871.368c-21.61 21.61-50.49 33.512-81.322 33.512s-59.712-11.901-81.322-33.511c-21.61-21.61-33.51-50.49-33.51-81.322s11.9-59.712 33.51-81.323l169.436-169.438c11.72-11.718 11.72-30.722 0-42.441-11.72-11.72-30.723-11.72-42.442 0L113.453 666.283c-32.946 32.944-51.09 76.898-51.09 123.764 0 46.865 18.144 90.82 51.09 123.763 32.944 32.947 76.898 51.092 123.764 51.092s90.82-18.145 123.763-51.092L610.654 664.14c32.946-32.944 51.09-76.898 51.09-123.764-0.003-46.865-18.146-90.82-51.09-123.764-27.534-27.536-64.073-45.24-102.885-49.854a29.998 29.998 0 0 0-10.509 0.602l211.59-211.59c21.61-21.61 50.49-33.508 81.321-33.508s59.712 11.899 81.323 33.509c21.61 21.61 33.509 50.49 33.509 81.322s-11.9 59.712-33.51 81.322l-150.18 150.182c-11.72 11.72-11.72 30.723 0 42.442 11.72 11.719 30.723 11.719 42.442 0l150.18-150.182c32.947-32.945 51.09-76.899 51.09-123.764 0.002-46.866-18.142-90.82-51.088-123.764z" fill="#c0c4cc" /></svg>