<?xml version="1.0" standalone="no"?><!DOCTYPE svg PUBLIC "-//W3C//DTD SVG 1.1//EN" "http://www.w3.org/Graphics/SVG/1.1/DTD/svg11.dtd"><svg class="icon" width="32px" height="26.99px" viewBox="0 0 1214 1024" version="1.1" xmlns="http://www.w3.org/2000/svg"><path d="M884.72737164 251.98844598H296.13302246A44.14457648 44.14457648 0 0 0 251.98844598 296.13302246v279.58231549A44.14457648 44.14457648 0 0 0 296.13302246 619.85991443h176.57830508l96.8237699 96.82377072a29.42971738 29.42971738 0 0 0 41.79019922 0L708.14906655 619.85991443h176.5783051a44.14457648 44.14457648 0 0 0 44.14457647-44.14457649V296.13302246A44.14457648 44.14457648 0 0 0 884.72737164 251.98844598z" fill="#c0c4cc" /><path d="M590.43019705 483.60032257a29.42971738 29.42971738 0 0 1-29.42971738-29.42971737v-44.14457649a29.42971738 29.42971738 0 1 1 58.85943476 0v44.14457649a29.42971738 29.42971738 0 0 1-29.42971738 29.42971737zM406.49446284 483.60032257a29.42971738 29.42971738 0 0 1-29.42971738-29.42971737v-44.14457649a29.42971738 29.42971738 0 1 1 58.85943474 0v44.14457649a29.42971738 29.42971738 0 0 1-29.42971736 29.42971737zM774.36593127 483.60032257a29.42971738 29.42971738 0 0 1-29.42971738-29.42971737v-44.14457649a29.42971738 29.42971738 0 1 1 58.85943477 0v44.14457649a29.42971738 29.42971738 0 0 1-29.42971738 29.42971737zM387.95374048 148.98443475h-14.71485827a29.42971738 29.42971738 0 0 1 0-58.85943475h14.71485827a29.42971738 29.42971738 0 0 1 0 58.85943475z" fill="#c0c4cc" /><path d="M590.43019705 933.875a88.28915213 88.28915213 0 0 1-62.39100064-25.89815149l-126.25348809-126.25348809H207.84386951a117.71886951 117.71886951 0 0 1-117.71886951-117.71886952V207.84386951a117.71886951 117.71886951 0 0 1 117.71886951-117.71886951h44.14457647a29.42971738 29.42971738 0 0 1 0 58.85943475H207.84386951a58.85943475 58.85943475 0 0 0-58.85943476 58.85943476v456.1606214a58.85943475 58.85943475 0 0 0 58.85943476 58.85943475h206.00802246a29.42971738 29.42971738 0 0 1 20.89509961 8.53461777l134.78810586 135.08240323a29.42971738 29.42971738 0 0 0 41.79019922 0l134.78810586-135.08240323a29.42971738 29.42971738 0 0 1 20.89509961-8.53461777h206.00802247a58.85943475 58.85943475 0 0 0 58.85943475-58.85943475V207.84386951a58.85943475 58.85943475 0 0 0-58.85943475-58.85943476H531.5707623a29.42971738 29.42971738 0 0 1 0-58.85943475h441.44576231a117.71886951 117.71886951 0 0 1 117.7188695 117.71886951v456.16062139a117.71886951 117.71886951 0 0 1-117.7188695 117.71886951h-193.94183882l-126.25348727 126.2534881a88.28915213 88.28915213 0 0 1-62.39100147 25.89815149z" fill="#c0c4cc" /></svg>