<?xml version="1.0" standalone="no"?><!DOCTYPE svg PUBLIC "-//W3C//DTD SVG 1.1//EN" "http://www.w3.org/Graphics/SVG/1.1/DTD/svg11.dtd"><svg class="icon" width="32px" height="32.00px" viewBox="0 0 1024 1024" version="1.1" xmlns="http://www.w3.org/2000/svg"><path d="M978.432 434.176L589.824 45.568C560.64 16.384 521.216 0 479.744 0H155.648C69.632 0 0 69.632 0 155.136v324.096c0 40.96 16.384 80.896 45.568 110.08l389.12 389.12c60.928 60.416 159.232 60.416 220.16 0l324.096-324.608c60.416-60.416 60.416-158.72-0.512-219.648z m-51.2 168.448L602.624 926.72c-32.256 32.256-84.48 32.256-116.736 0l-389.12-389.12c-15.36-15.36-24.064-36.352-24.064-58.368V155.136c0-45.568 36.864-82.432 81.92-82.432h325.12c22.016 0 42.496 8.704 58.368 24.064l388.608 389.12c32.256 32.256 32.256 84.48 0.512 116.736z" fill="#909399" /><path d="M365.056 218.624c-80.896 0-146.432 65.536-146.432 146.432s65.536 146.432 146.432 146.432 146.432-65.536 146.432-146.432-65.536-146.432-146.432-146.432z m52.224 198.144c-28.16 29.184-74.24 29.696-103.424 2.048-29.184-28.16-29.696-74.24-2.048-103.424l2.048-2.048c29.184-28.16 75.264-27.136 103.424 2.048 27.136 28.16 27.136 73.216 0 101.376z" fill="#909399" /></svg>