<?xml version="1.0" standalone="no"?><!DOCTYPE svg PUBLIC "-//W3C//DTD SVG 1.1//EN" "http://www.w3.org/Graphics/SVG/1.1/DTD/svg11.dtd"><svg class="icon" width="32px" height="23.04px" viewBox="0 0 1422 1024" version="1.1" xmlns="http://www.w3.org/2000/svg"><path d="M1318.471651 0H103.855981A103.975815 103.975815 0 0 0 0 103.855981v816.288038a103.975815 103.975815 0 0 0 103.855981 103.855981h1214.61567a103.975815 103.975815 0 0 0 103.855981-103.855981V103.855981a103.975815 103.975815 0 0 0-103.855981-103.855981zM709.176572 450.914708L217.877865 127.822746h982.637358zM127.822746 896.177254V221.592713l546.242515 359.221861 0.339529 0.219695q1.617757 1.03856 3.275458 1.99723l0.798892 0.459363q1.597784 0.878781 3.235514 1.637729l0.878781 0.419419c1.278227 0.579197 2.556455 1.118449 3.854655 1.617756 0.699031 0.25964 1.398061 0.479335 1.99723 0.719003l1.857424 0.619142c0.818864 0.25964 1.637729 0.459363 2.456594 0.679058l1.557839 0.399446 2.516511 0.539252 1.597784 0.279612c0.818864 0.139806 1.637729 0.279612 2.456593 0.379474l1.877397 0.199723c0.738975 0 1.457978 0.159778 2.196953 0.199723 1.098477 0 2.216926 0.099862 3.315403 0.119834h1.577812c1.118449 0 2.216926 0 3.315402-0.119834 0.738975 0 1.457978-0.119834 2.176981-0.199723l1.897369-0.199723 2.456594-0.379474 1.617756-0.299584 2.516511-0.539252 1.557839-0.399446c0.818864-0.219695 1.637729-0.439391 2.456594-0.679059l1.837452-0.619141c0.699031-0.239668 1.398061-0.459363 2.097092-0.719003 1.2982-0.499308 2.576427-1.03856 3.854654-1.617757l0.898754-0.43939c1.078504-0.51928 2.137037-1.03856 3.195569-1.617757l0.838836-0.479335q1.637729-0.938698 3.235514-1.997231l0.359501-0.219695 550.336838-361.798288v677.200913z" fill="#c0c4cc" /></svg>