<?xml version="1.0" standalone="no"?><!DOCTYPE svg PUBLIC "-//W3C//DTD SVG 1.1//EN" "http://www.w3.org/Graphics/SVG/1.1/DTD/svg11.dtd"><svg class="icon" width="32px" height="26.68px" viewBox="0 0 1228 1024" version="1.1" xmlns="http://www.w3.org/2000/svg"><path d="M1201.055075 528.985979c-38.724583-39.883593-457.127335-455.218376-494.556553-492.374886a131.377237 131.377237 0 0 0-192.05484 10.908333C488.877276 73.154009 51.657649 493.193011 20.705254 523.395458a74.176665 74.176665 0 0 0 2.999792 105.129061 80.789842 80.789842 0 0 0 100.833904 2.590729c24.816458-20.044062 366.179107-350.907441 415.334784-396.654263a98.038644 98.038644 0 0 1 150.466819 0c32.861354 30.61151 389.222961 380.632649 414.380305 402.858377a79.767186 79.767186 0 0 0 102.811039-2.522552 72.404061 72.404061 0 0 0-6.476822-105.810831zM538.987431 347.703118c-26.929947 26.043645-384.10968 362.088482-384.109679 362.088483v249.869005a64.768228 64.768228 0 0 0 76.494686 63.268332h224.98437l0.613594-194.509215a36.065676 36.065676 0 0 1 36.611093-42.337968c33.065885 0 213.530621 0.681771 233.64286 0.47724a34.702135 34.702135 0 0 1 37.429218 41.928905V1022.65623h231.324839a72.676769 72.676769 0 0 0 74.99479-71.108697V711.768736s-361.338534-345.248743-380.973534-364.47468a106.151717 106.151717 0 0 0-151.080414 0z" fill="#f2f6fc" /></svg>